<?xml version="1.0" encoding="UTF-8"?>
<svg xmlns="http://www.w3.org/2000/svg" viewBox="0 0 600 1220">
  <path id="back_lats_left" data-muscle="LATS" data-label="Lats" data-side="left" d="M232.96,476.43c.25.94.2,1.85-.11,2.75-2.42-7.41-4.41-13.46-5.25-15.49-1.64-3.94-12.21-22.75-21.66-39.65h0c-4.33-30.87-17.81-82.33-17.81-82.33,0,0-.01.08-.02.23-1.07-15.79-2.71-33.79-4.92-40.42-4.26-12.8.27-20.54-8.8-30.4-.13-.14-.27-.29-.41-.44,12.94-7.53,28.41-17.14,50.27-40.19,2.38,2.03,4.58,4.53,6.53,7.69,7.56,12.27,18.6,65.97,21.24,76.67,4.85,19.58,36.52,73.14,42.73,91.48-6.67,3.46-55.17,63.25-61.79,70.1Z"/>
  <path id="back_lats_right" data-muscle="LATS" data-label="Lats" data-side="right" d="M366.16,476.43c-.25.94-.2,1.85.11,2.75,2.42-7.41,4.41-13.46,5.25-15.49,1.64-3.94,12.21-22.75,21.66-39.65h0c4.33-30.87,17.81-82.33,17.81-82.33,0,0,.01.08.02.23,1.07-15.79,2.71-33.79,4.92-40.42,4.26-12.8-.27-20.54,8.8-30.4.13-.14.27-.29.41-.44-12.94-7.53-26.41-15.14-48.27-38.19-2.38,2.03-6.58,5.53-8.53,8.69-7.56,12.27-18.6,62.97-21.24,73.67-4.85,19.58-36.52,73.14-42.73,91.48,6.67,3.46,55.17,63.25,61.79,70.1Z"/>
  <path id="back_triceps_left" data-muscle="TRICEPS" data-label="Triceps" data-side="left" d="M188.11,341.94h0c-.17,1.54-1.17,10.21-4.11,23.72-2.37,10.86-6,24.85-11.48,40.76-8.96,12.29-24.75,33.72-24.53,31.55,1.82-17.78-5.34-15.73-4.8-19.8,1.95-14.56,17.11-59.03,4.54-63.34-12.47-4.26-20,40.3-17.91,68.18,0,0-11.05-7.76-12.34-33.88-.4-8,.07-17.38-.25-30.97,4.04-24.89,10.16-42.66,13.19-48.03.01-.01.02-.02.02-.03.34-.45.68-.94,1.01-1.44,15.01-22.87,26.94-28.92,42.53-37.98.14.15.28.3.41.44,9.07,9.86,4.54,17.6,8.8,30.4,2.21,6.63,3.85,24.63,4.92,40.42Z"/>
  <path id="back_triceps_right" data-muscle="TRICEPS" data-label="Triceps" data-side="right" d="M411.01,341.94h0c.17,1.54,2.17,10.21,5.11,23.72,2.37,10.86,9.02,27.45,13.48,40.76,4.2,11.35,22.92,32.53,22.7,30.36-1.82-17.78,4.17-14.54,3.63-18.61-1.95-14.56-17.28-59.55-4.54-63.34,14.79-4.4,23.25,40.11,17.91,68.18,0,0,11.05-7.76,12.34-33.88.4-8-.07-17.38.25-30.97-4.04-24.89-10.16-42.66-13.19-48.03-.01-.01-.02-.02-.02-.03-.34-.45-.68-.94-1.01-1.44-15.01-22.87-26.94-28.92-42.53-37.98-.14.15-.28.3-.41.44-9.07,9.86-4.54,17.6-8.8,30.4-2.21,6.63-3.85,24.63-4.92,40.42Z"/>
  <path id="back_forearms_left" data-muscle="FOREARMS" data-label="Forearms" data-side="left" d="M172.52,406.42c-1.02,2.99-2.11,6.04-3.27,9.15-4.57,78.38-40.81,107.92-58.38,159.58,0,0-23.99,2.42-39.34-10.41,8.63-16.38,10.81-45.94,18.75-108.82,3.31-26.29,23.08-54.11,23.74-70.02.69-9.93,1.83-19.25,3.21-27.74.38,10.99-2.2,45.45-2.09,61.83.03,4.47,1.74,8.77,4.74,12.08,2.73,3.02,5.4,5.55,10,8.19,6.4,1.8,11.81,3.4,18.11-2.29,6.31-5.7,17.43-20.79,24.53-31.55Z"/>
  <path id="back_forearms_right" data-muscle="FOREARMS" data-label="Forearms" data-side="right" d="M427.6,406.42c1.02,2.99,2.11,6.04,3.27,9.15,4.57,78.38,40.44,105.47,58.38,159.58,0,0,22.13,5.23,40.34-12.41-8.63-16.38-11.81-43.94-19.75-106.82-3.31-26.29-23.08-54.11-23.74-70.02-.69-9.93-1.83-19.25-3.21-27.74-.38,10.99,2.2,45.45,2.09,61.83-.03,4.47-1.74,8.77-4.74,12.08-2.73,3.02-5.4,5.55-10,8.19-6.4,1.8-11.81,3.4-18.11-2.29-6.31-5.7-17.43-20.79-24.53-31.55Z"/>
  <path id="back_obliques_left" data-muscle="OBLIQUES" data-label="Obliques" data-side="left" d="M236.72,491c-16.18-.67-26.83,1.91-36.86,14.81-.02-3.91.02-7.53.12-10.88.81-27.8,5.46-37.79,7.13-52.55.45-3.99-.06-10.5-1.17-18.34,9.45,16.9,20.02,35.71,21.66,39.65.84,2.03,2.83,8.08,5.25,15.49,1.21,3.71,2.52,7.76,3.87,11.82Z"/>
  <path id="back_obliques_right" data-muscle="OBLIQUES" data-label="Obliques" data-side="right" d="M362.4,491c16.18-.67,26.83,1.91,36.86,14.81.02-3.91-.02-7.53-.12-10.88-.81-27.8-5.46-37.79-7.13-52.55-.45-3.99.06-10.5,1.17-18.34-9.45,16.9-20.02,35.71-21.66,39.65-.84,2.03-2.83,8.08-5.25,15.49-1.21,3.71-2.52,7.76-3.87,11.82Z"/>
  <path id="back_traps_center" data-muscle="TRAPS" data-label="Trapezius" data-side="center" d="M409.33,200.49c-14.73-3.21-38.36-13.55-55.83-24.5-4.62-2.9-8.81-5.84-12.29-8.71-12.37-31.26-7.3-53.77-26.08-55.56-4.92-.06-7.39,1.96-8.5,7.94-5.5-1.38-7.07-1.05-7.07-1.05,0,0-1.57-.33-7.07,1.05-1.11-5.98-3.58-8-8.5-7.94-18.78,1.79-13.71,24.3-26.08,55.56-3.48,2.87-7.67,5.81-12.29,8.71-17.47,10.95-41.1,21.29-55.83,24.5-2.63,3.03-4.17,4.89-3.03,6.78,8.61,14.33,25.28,12.72,37.49,23.22,2.38,2.03,4.58,4.53,6.53,7.69,7.56,12.27,18.6,65.97,21.24,76.67,4.85,19.58,36.52,73.14,42.73,91.48,1,2.95,4.81,2.64,4.81,2.64,0,0,3.81.31,4.81-2.64,6.21-18.34,37.88-71.9,42.73-91.48,2.64-10.7,13.68-61.4,21.24-73.67,1.95-3.16,7.15-8.66,9.53-10.69,12.21-10.5,27.72-8.62,36.33-22.95,1.14-1.89-2.36-4.57-4.87-7.05Z"/>
  <path id="back_lower_back_center" data-muscle="LOWER_BACK" data-label="Lower back" data-side="center" d="M365.33,475.54c-9.07-10-54.52-65.87-60.96-69.21-1,2.95-4.81,2.64-4.81,2.64,0,0-3.81.31-4.81-2.64-6.44,3.34-51.89,59.21-60.96,69.21-.49.54-.69,1.25-.67,1.98,0,0,0,.02,0,.03.03,1.43.13,2.86.58,4.23.97,2.97,1.98,6.1,3.03,9.23,0,0,0,0,0,0,15.46.51,60.1,26.49,62.83,61.52,2.74-35.03,47.38-61,62.83-61.52,0,0,0,0,0,0,1.04-3.13,2.06-6.26,3.03-9.23.44-1.36.55-2.79.58-4.23,0,0,0-.02,0-.03.02-.73-.18-1.44-.67-1.98Z"/>
  <path id="back_shoulders_left" data-muscle="SHOULDERS" data-label="Rear shoulders" data-side="left" d="M224.25,230.49c-21.86,23.05-37.33,32.66-50.27,40.19-15.59,9.06-27.52,15.11-42.53,37.98-.93-5.1-5.33-37.02,5.49-65.13,7.23-18.81,21.27-35.92,47.71-42.17,1.55-.16,3.27-.46,5.14-.87-2.63,3.03-4.17,4.89-3.03,6.78,8.61,14.33,25.28,12.72,37.49,23.22Z"/>
  <path id="back_shoulders_right" data-muscle="SHOULDERS" data-label="Rear shoulders" data-side="right" d="M376.87,232.49c21.86,23.05,35.33,30.66,48.27,38.19,15.59,9.06,27.52,15.11,42.53,37.98.93-5.1,7.33-37.02-3.49-65.13-7.23-18.81-21.27-34.92-47.71-41.17-1.55-.16-3.27-.46-5.14-.87,2.63,3.03,4.31,4.98,3.03,6.78-10.1,14.22-27.08,12.09-37.49,24.22Z"/>
  <path id="back_glutes_left" data-muscle="GLUTES" data-label="Glutes" data-side="left" d="M299.56,575.33c0,52.61-10.33,71.04-42.23,73.65-35.58,2.9-54.13-14.38-54.57-73.65-.3-41.02-2.62-84.69,33.95-77.97,25.55,4.7,62.84,28.68,62.84,77.97Z"/>
  <path id="back_glutes_right" data-muscle="GLUTES" data-label="Glutes" data-side="right" d="M299.56,575.33c-1.27,52.59,10.33,71.04,42.23,73.65,35.58,2.9,54.13-14.38,54.57-73.65.3-41.02,2.62-84.69-33.95-77.97-25.55,4.7-61.7,30.67-62.84,77.97Z"/>
  <path id="back_calves_left" data-muscle="CALVES" data-label="Calves" data-side="left" d="M179.59,955.07c-1.49-33.52,9.37-69.24,12.09-79.14,3.29-12.01,10.57-21.51,17.38-32.38,13.04,10.47,16.38,27.12,18.17,31.59,3.67-10.33,3.61-17.41,8.56-26.24,10.45,10.99,21.77,34.41,23.03,48.35,1.34,14.85,10.4,38.54,7.56,83.52-1.1,17.52-14.9,49.91-15.28,94.98-8.04,13.41-16.32,65.79-6.5,95.57-11.37-40.81-6.63-48.03-3.18-99.29,2.61-38.74,8.19-36.88,13.04-55.5-13.45.64-29.18-23.78-27.19-37.99-6.33,23.09-11.55,29.43-28.48,21.39,12.09,18.83,32.5,96.42,25.99,161.82-.49-78.54-24.16-94.98-34.76-142.24-3.95-18.96-9.06-33.63-10.43-64.44Z"/>
  <path id="back_calves_right" data-muscle="CALVES" data-label="Calves" data-side="right" d="M419.68,955.07c1.49-33.52-10.37-69.24-13.09-79.14-3.29-12.01-9.57-21.51-16.38-32.38-13.04,10.47-16.38,27.12-18.17,31.59-3.67-10.33-3.61-17.41-8.56-26.24-10.45,10.99-21.77,34.41-23.03,48.35-1.34,14.85-10.4,38.54-7.56,83.52,1.1,17.52,14.9,49.91,15.28,94.98,8.04,13.41,16.32,65.79,6.5,95.57,11.37-40.81,6.63-48.03,3.18-99.29-2.61-38.74-8.19-36.88-13.04-55.5,13.45.64,29.18-23.78,27.19-37.99,6.33,23.09,11.55,29.43,28.48,21.39-12.09,18.83-32.5,96.42-25.99,161.82.49-78.54,24.16-94.98,34.76-142.24,3.95-18.96,9.06-33.63,10.43-64.44Z"/>
  <path id="back_hamstrings_left" data-muscle="HAMSTRINGS" data-label="Hamstrings" data-side="left" d="M193.86,626.36c-12.89,37.93-16.02,91.51-1.35,163.94-.83,85.63-1.15,73.14-.83,85.63,1.47-8.93,23.72-43.95,28.15-63.53,8.88,36.35,30.58,40.91,38.22,79.97,16.38-34.22,18.48-68.67,18.83-79.36-.72-68.89,19.36-107.07,15.18-178.99-21.85,21.34-48.11,17.19-64.98,16.88-7.42-.13-16.86,10.16-24.45,32.97,1.64-22.81-8.44-56.83-8.77-57.51Z"/>
  <path id="back_hamstrings_right" data-muscle="HAMSTRINGS" data-label="Hamstrings" data-side="right" d="M406.16,626.36c12.89,37.93,15.02,91.51.35,163.94.83,85.63.15,73.14-.17,85.63-1.47-8.93-22.72-43.95-27.15-63.53-8.88,36.35-30.58,40.91-38.22,79.97-16.38-34.22-18.48-68.67-18.83-79.36.72-68.89-19.36-107.07-15.18-178.99,21.85,21.34,48.11,17.19,64.98,16.88,7.42-.13,16.86,10.16,24.45,32.97.09-23.77,9.44-56.83,9.77-57.51Z"/>
</svg>
