<?xml version="1.0" encoding="UTF-8"?>
<svg xmlns="http://www.w3.org/2000/svg" viewBox="0 0 600 1220">
  <path id="front_chest_left" data-muscle="CHEST" data-label="Chest" data-side="left" d="M231.03,218.92c19.95-.15,46.46,5.43,48.87,9.65,4,4.75,25.14,59.05,10.26,96.53-7.73,12.19-52.31,27.6-71.19,13.88-12.31-8.95-29-24.79-35.04-57.37-6.03-32.58,40.2-62.65,47.1-62.7Z"/>
  <path id="front_chest_right" data-muscle="CHEST" data-label="Chest" data-side="right" d="M369.44,218.92c-19.95-.15-46.46,5.43-48.87,9.65-4,4.75-25.14,59.05-10.26,96.53,7.73,12.19,52.31,27.6,71.19,13.88,12.31-8.95,29-24.79,35.04-57.37s-40.2-62.65-47.1-62.7Z"/>
  <path id="front_obliques_left" data-muscle="OBLIQUES" data-label="Obliques" data-side="left" d="M201.8,488.07c.49,21.16,33.53,40.66,40.32,37.19,6.03-16.43.77-38.55-6.58-53.69,7.78-4.27,8.13-26.86.21-36.86,3.7,1.45,10.77-14.04.57-30.96,6.5-.25,6.33-22.13,1.29-30.38,12.47-9.1-.85-22.72-5.03-26.01.3-.71.16-1.93-1.04-3-2.2.22-34.92-17.91-44.34-49.54-1.88,61.47,8.21,88.01,17.22,113.63,6.84,37.89-3.19,55-2.62,79.6Z"/>
  <path id="front_obliques_right" data-muscle="OBLIQUES" data-label="Obliques" data-side="right" d="M399.04,488.07c-.49,21.16-33.53,40.66-40.32,37.19-6.03-16.43-.77-38.55,6.58-53.69-7.78-4.27-8.13-26.86-.21-36.86-3.7,1.45-10.77-14.04-.57-30.96-6.5-.25-6.33-22.13-1.29-30.38-12.47-9.1.85-22.72,5.03-26.01-.3-.71-.16-1.93,1.04-3,2.2.22,34.92-17.91,44.34-49.54,1.88,61.47-8.21,88.01-17.22,113.63-6.84,37.89,3.19,55,2.62,79.6Z"/>
  <path id="front_abs_center_lower" data-muscle="ABS" data-label="Abdominals" data-side="center-lower" d="M348.81,472.13c-10.46-1.07-44.77-2.12-45.04,11.98-1.56,11.83-2.45,63.8-3.34,90.22-.97-32.49-1.99-78.02-3.55-89.85-.27-14.1-34.37-13.42-44.83-12.35-3.44,43.96,23.71,114.23,26.13,120.26,5.27,13.12,10.09,22.01,21.75,22.25v.03c.17,0,.33-.01.5-.01.17,0,.33.02.5.01v-.03c11.66-.23,16.48-9.12,21.75-22.25,2.42-6.03,29.58-76.3,26.13-120.26Z"/>
  <path id="front_abs_left_upper" data-muscle="ABS" data-label="Abdominals" data-side="left-upper" d="M253.02,348.93c5.43-5.82,28.88-18.39,40.31-12.14,5.75,3.14,3.01,19.91,3.42,26.64.47,7.78-12.41,7.89-21.63,13.1-3.46,1.96-17.15,10.71-23.38,12.71-7.67,2.46-5.32-33.24,1.28-40.31Z"/>
  <path id="front_abs_left_middle" data-muscle="ABS" data-label="Abdominals" data-side="left-middle" d="M250.43,397.37c5.53-5.72,32.32-23.86,44.71-19.87,4.66,1.5,3.39,34.91,1.92,39.03-2.63,7.34-17.67,2.13-28.88,4.54-3.89.84-7.82,2.83-14.05,4.83-7.67,2.46-7.81-24.27-3.69-28.53Z"/>
  <path id="front_abs_left_lower" data-muscle="ABS" data-label="Abdominals" data-side="left-lower" d="M249.72,432.35c4.49-5.39,35.54-9.96,44.97-5.74,5.97,2.68,4.07,25.9,2.36,32.42-2.12,8.11-9.92,9.82-23.35,9.34-4.37-.16-15.62.96-21.96-2.59-3.13-1.75-6.2-28.41-2.02-33.44Z"/>
  <path id="front_abs_right_upper" data-muscle="ABS" data-label="Abdominals" data-side="right-upper" d="M346.68,348.93c-5.43-5.82-28.88-18.39-40.31-12.14-5.75,3.14-3.01,19.91-3.42,26.64-.47,7.78,12.41,7.89,21.63,13.1,3.46,1.96,17.15,10.71,23.38,12.71,7.67,2.46,5.32-33.24-1.28-40.31Z"/>
  <path id="front_abs_right_middle" data-muscle="ABS" data-label="Abdominals" data-side="right-middle" d="M349.26,397.37c-5.53-5.72-32.32-23.86-44.71-19.87-4.66,1.5-3.39,34.91-1.92,39.03,2.63,7.34,17.67,2.13,28.88,4.54,3.89.84,7.82,2.83,14.05,4.83,7.67,2.46,7.81-24.27,3.69-28.53Z"/>
  <path id="front_abs_right_lower" data-muscle="ABS" data-label="Abdominals" data-side="right-lower" d="M349.97,432.35c-4.49-5.39-35.54-9.96-44.97-5.74-5.97,2.68-4.07,25.9-2.36,32.42,2.12,8.11,9.92,9.82,23.35,9.34,4.37-.16,15.62.96,21.96-2.59,3.13-1.75,6.2-28.41,2.02-33.44Z"/>
  <path id="front_biceps_left" data-muscle="BICEPS" data-label="Biceps" data-side="left" d="M131.14,437.35c25.89-17.06,74.08-108.83,48.43-160.99-26.87,27.25-27.88,23.9-40.1,48.96-1.32-6.87-3.47-13-6.51-18.72-12.39,25.94-15.05,53.09-15.06,76.35,5.67,28.02,13.15,24.02,13.25,54.4Z"/>
  <path id="front_biceps_right" data-muscle="BICEPS" data-label="Biceps" data-side="right" d="M469.06,437.35c-27.5-15.09-75.43-107.16-48.43-160.99,26.87,27.25,27.88,23.9,40.1,48.96,1.32-6.87,3.47-13,6.51-18.72,12.39,25.94,15.05,53.09,15.06,76.35-5.67,28.02-13.15,24.02-13.25,54.4Z"/>
  <path id="front_quadriceps_left" data-muscle="QUADRICEPS" data-label="Quadriceps" data-side="left" d="M224.55,792.96c-16-17.7,7.08,29.46-19.29,47.47-15.58-53.39-31.31-96.46-22.88-147.94,8.05-70.63,21.14-58.49,39.53-132.45,15.65,100.8,36.34,121.79,44.46,172.51,5.99,41.07,10.99,104.59-18.63,102.43-20.29-17.07-2.23-56.71-17.93-41.61-1.6,1.25-3.9,1.08-5.26-.43Z"/>
  <path id="front_quadriceps_right" data-muscle="QUADRICEPS" data-label="Quadriceps" data-side="right" d="M377.3,792.96c16-17.7-7.08,29.46,19.29,47.47,15.58-53.39,31.31-96.46,22.88-147.94-8.05-70.63-21.14-58.49-39.53-132.45-15.65,100.8-36.34,121.79-44.46,172.51-5.99,41.07-10.99,104.59,18.63,102.43,20.29-17.07,2.23-56.71,17.93-41.61,1.6,1.25,3.9,1.08,5.26-.43Z"/>
  <path id="front_traps_left" data-muscle="TRAPS" data-label="Upper trapezius" data-side="left" d="M241.83,212.31c4.16-.83,12.7-3.75,16.57-9.67.7-7.47.09-29.11-2.07-33.14-20.35,19.2-36.1,22.16-55.93,31.07,14.61,5.38,31.47,13.72,41.43,11.74Z"/>
  <path id="front_traps_right" data-muscle="TRAPS" data-label="Upper trapezius" data-side="right" d="M358.74,212.31c-4.16-.83-12.7-3.75-16.57-9.67-.7-7.47-.09-29.11,2.07-33.14,20.35,19.2,36.1,22.16,55.93,31.07-14.61,5.38-31.47,13.72-41.43,11.74Z"/>
  <path id="front_shoulders_left" data-muscle="SHOULDERS" data-label="Shoulders" data-side="left" d="M229.54,218.92c-15-7.52-35.15-16.43-42.67-15.53-46.17,5.56-56.19,56.76-56.49,59.9-1.48,15.64-.3,37.33,2.58,43.31,4.06,8.4,6.05,16.24,6.51,18.72,8.44-19.66,21.78-32.07,29.76-39,9.99-9.23,13.78-12.72,16.25-22.46,4.24-12.06,13.28-27.74,44.06-44.93Z"/>
  <path id="front_shoulders_right" data-muscle="SHOULDERS" data-label="Shoulders" data-side="right" d="M369.44,218.92c15-7.52,40.49-15.97,43.68-15.53,46.06,6.35,56.19,56.76,56.49,59.9,1.48,15.64.3,37.33-2.58,43.31-4.06,8.4-6.05,16.24-6.51,18.72-8.44-19.66-21.78-32.07-29.76-39-9.99-9.23-13.22-13.4-15.69-23.14-4.24-12.06-24.41-38.41-45.63-44.25Z"/>
  <path id="front_forearms_left" data-muscle="FOREARMS" data-label="Forearms" data-side="left" d="M71.56,562.21c2.91.57,36.29,7.05,39.81,9.51,19.69-51.83,36.18-66.15,45.17-97.31,12.43-21.76-4.16-46.95-10.25-52.31-6.51,8.25-8.58,10.21-15.15,15.25.56-25.73-9.9-33.44-14.13-56.21-6.79,30.02-18.65,36.15-23.61,61.28-7.68,22.37-6.16,62.56-21.84,119.79Z"/>
  <path id="front_forearms_right" data-muscle="FOREARMS" data-label="Forearms" data-side="right" d="M528.05,562.21c-2.91.57-36.29,7.05-39.81,9.51-19.69-51.83-37.88-68.99-46.87-100.16-12.43-21.76,4.99-44.23,11.07-49.6,6.51,8.25,10.31,11.57,16.62,15.38-.56-25.73,9.31-33.44,13.54-56.21,6.79,30.02,18.65,36.15,23.61,61.28,7.68,22.37,6.16,62.56,21.84,119.79Z"/>
  <path id="front_abductors_left" data-muscle="ABDUCTORS" data-label="Hip abductors" data-side="left" d="M201.7,499.49c5.51,16.46,11.1,19.5,16.62,26.17,7.15,27.61,4.07,37.47-17.8,96.77-16.92,28.2-20.93,83.1-20.5,97.47-5.62-62.18,0-83.63,4.52-129.78,7.28-18.4,4.01-54.58,17.16-90.63Z"/>
  <path id="front_abductors_right" data-muscle="ABDUCTORS" data-label="Hip abductors" data-side="right" d="M398.87,499.49c-5.51,16.46-11.1,19.5-16.62,26.17-7.15,27.61-2.7,43.62,18.8,95.77,16.92,28.2,20.23,80.67,19.8,95.04,5.62-62.18-.3-80.2-4.82-126.35-7.28-18.4-4.01-54.58-17.16-90.63Z"/>
  <path id="front_adductors_left" data-muscle="ADDUCTORS" data-label="Hip adductors" data-side="left" d="M230.85,535.43c23.82,23.78,49.25,90,61.98,90,5.47,69.11-11.89,110.81-13.16,127.37-4.86-45.95-10.22-81.09-22.53-115.48-11.85-45.27-20.67-66.88-26.29-101.89Z"/>
  <path id="front_adductors_right" data-muscle="ADDUCTORS" data-label="Hip adductors" data-side="right" d="M370.46,535.43c-23.82,23.78-49.25,90-61.98,90-5.47,69.11,11.89,110.81,13.16,127.37,4.86-45.95,10.22-81.09,22.53-115.48,11.85-45.27,20.67-66.88,26.29-101.89Z"/>
</svg>
